<svg width="12" height="12" xmlns="http://www.w3.org/2000/svg" id="facebook">

 <g>
  <title>background</title>
  <rect fill="#212227" id="canvas_background" height="14" width="14" y="-1" x="-1"/>
 </g>
 <g>
  <title>Layer 1</title>
  <g stroke="null" id="svg_1">
   <path stroke="null" id="svg_2" d="m9.486566,0.127474l-1.971386,-0.002444c-2.214785,0 -3.646076,1.134796 -3.646076,2.891194l0,1.333034l-1.98214,0c-0.17128,0 -0.309981,0.107308 -0.309981,0.23967l0,1.931414c0,0.132362 0.138859,0.239548 0.309981,0.239548l1.98214,0l0,4.873573c0,0.132362 0.138701,0.239548 0.309981,0.239548l2.586129,0c0.17128,0 0.309981,-0.107308 0.309981,-0.239548l0,-4.873573l2.317584,0c0.17128,0 0.309981,-0.107185 0.309981,-0.239548l0.000949,-1.931414c0,-0.063553 -0.032738,-0.124418 -0.09078,-0.169394c-0.058042,-0.044976 -0.137119,-0.070275 -0.219359,-0.070275l-2.318375,0l0,-1.130029c0,-0.543138 0.167485,-0.818862 1.083037,-0.818862l1.328017,-0.000367c0.171122,0 0.309823,-0.107308 0.309823,-0.239548l0,-1.79343c0,-0.132118 -0.138543,-0.239303 -0.309507,-0.239548z"/>
  </g>
 </g>
</svg>