<svg width="12" height="12" xmlns="http://www.w3.org/2000/svg" id="facebook"><path fill="#212227" id="canvas_background" d="M-1-1h14v14H-1z"/><g stroke="null" id="svg_1"><path stroke="null" id="svg_2" d="M9.487.127L7.515.125C5.3.125 3.87 1.26 3.87 3.016V4.35H1.887c-.171 0-.31.108-.31.24v1.93c0 .133.139.24.31.24h1.982v4.873c0 .133.139.24.31.24h2.586c.171 0 .31-.107.31-.24V6.76h2.318c.171 0 .31-.107.31-.24V4.59a.216.216 0 0 0-.09-.17.361.361 0 0 0-.22-.07H7.076V3.22c0-.543.168-.819 1.083-.819h1.328c.171 0 .31-.107.31-.24V.367c0-.132-.138-.24-.31-.24z"/></g></svg>